<?xml version="1.0" encoding="utf-8"?>
<!-- Generator: Adobe Illustrator 20.1.0, SVG Export Plug-In . SVG Version: 6.00 Build 0)  -->
<svg version="1.1" id="Layer_1" xmlns="http://www.w3.org/2000/svg" xmlns:xlink="http://www.w3.org/1999/xlink" x="0px" y="0px"
	 viewBox="0 0 86.2 86.5" style="enable-background:new 0 0 86.2 86.5;" xml:space="preserve">
<style type="text/css">
	.st0{fill:#BBBBBB;}
</style>
<g>
	<path class="st0" d="M12.1,39l25.8,26.8c1.4,1.5,3.4,2.3,5.4,2.3l0,0c2.1,0,4-0.9,5.4-2.3L74.1,39c2.8-3,2.7-7.8-0.3-10.6
		c-3-2.8-7.8-2.7-10.6,0.3l-12.4,13V7.5c0-4.1-3.4-7.5-7.5-7.5s-7.5,3.4-7.5,7.5V42L22.9,28.5c-2.9-3-7.6-3.1-10.6-0.2
		S9.3,36,12.1,39z"/>
	<path class="st0" d="M78.7,56.1c-4.1,0-7.5,3.4-7.5,7.5v7.9H15v-7.9c0-4.1-3.4-7.5-7.5-7.5S0,59.5,0,63.6v22.9h86.2V63.6
		C86.2,59.4,82.8,56.1,78.7,56.1z"/>
</g>
</svg>
