<?xml version="1.0" encoding="utf-8"?>
<!-- Generator: Adobe Illustrator 20.1.0, SVG Export Plug-In . SVG Version: 6.00 Build 0)  -->
<svg version="1.1" id="Layer_1" xmlns="http://www.w3.org/2000/svg" xmlns:xlink="http://www.w3.org/1999/xlink" x="0px" y="0px"
	 viewBox="0 0 76.1 76.2" style="enable-background:new 0 0 76.1 76.2;" xml:space="preserve">
<style type="text/css">
	.st0{fill:#BBBBBB;}
</style>
<g>
	<path class="st0" d="M39.4,56.1l-8.8,8.8c-2.2,2.2-5.1,3.4-8.2,3.4s-6-1.2-8.2-3.4l-2.8-2.8C9.2,59.9,8,57,8,53.9s1.2-6,3.4-8.2
		L23.1,34c4.5-4.5,11.9-4.5,16.4,0l4.2,4.2c1.6,1.6,4.1,1.6,5.7,0c1.6-1.6,1.6-4.1,0-5.7l-4.2-4.2c-7.6-7.6-20.1-7.6-27.7,0L5.7,40
		C2,43.7,0,48.6,0,53.9S2,64,5.7,67.7l2.8,2.8c3.7,3.7,8.6,5.7,13.8,5.7s10.1-2,13.8-5.7l8.8-8.8c1.6-1.6,1.6-4.1,0-5.7
		C43.5,54.5,41,54.5,39.4,56.1z"/>
	<path class="st0" d="M67.7,5.7C64,2,59.1,0,53.9,0S43.8,2,40.1,5.7l-7.4,7.4c-1.6,1.6-1.6,4.1,0,5.7c1.6,1.6,4.1,1.6,5.7,0l7.4-7.4
		C48,9.2,50.9,8,54,8s6,1.2,8.2,3.4l2.8,2.8c2.2,2.2,3.4,5.1,3.4,8.2s-1.2,6-3.4,8.2L54.7,40.8c-2.2,2.2-5.1,3.4-8.2,3.4
		c-3.1,0-6-1.2-8.2-3.4l-4.2-4.2c-1.6-1.6-4.1-1.6-5.7,0s-1.6,4.1,0,5.7l4.2,4.2c3.7,3.7,8.6,5.7,13.8,5.7s10.1-2,13.8-5.7
		l10.2-10.2c3.7-3.7,5.7-8.6,5.7-13.8s-2-10.1-5.7-13.8L67.7,5.7z"/>
</g>
</svg>
