<?xml version="1.0" encoding="utf-8"?>
<!-- Generator: Adobe Illustrator 16.0.0, SVG Export Plug-In . SVG Version: 6.00 Build 0)  -->
<!DOCTYPE svg PUBLIC "-//W3C//DTD SVG 1.1//EN" "http://www.w3.org/Graphics/SVG/1.1/DTD/svg11.dtd">
<svg version="1.1" id="Layer_2" xmlns="http://www.w3.org/2000/svg" xmlns:xlink="http://www.w3.org/1999/xlink" x="0px" y="0px"
	 width="6441.676px" height="1024px" viewBox="0 0 6441.676 1024" enable-background="new 0 0 6441.676 1024" xml:space="preserve">
<g>
	<path fill="#51B5FF" d="M497.808,959.59C497.805,959.59,497.811,959.59,497.808,959.59c-39.236,0-76.125-15.281-103.869-43.025
		L98.829,621.459c-57.273-57.273-57.273-150.468,0-207.737l295.106-295.109C421.681,90.87,458.57,75.59,497.805,75.59
		c39.234,0,76.125,15.279,103.868,43.022L896.78,413.722c57.271,57.271,57.271,150.464,0,207.737L601.676,916.564
		C573.934,944.309,537.043,959.59,497.808,959.59z M497.808,109.182c-30.265,0-58.715,11.786-80.115,33.187L122.585,437.477
		C78.41,481.65,78.41,553.529,122.586,597.703l295.105,295.109c21.399,21.396,49.854,33.182,80.115,33.182
		s58.715-11.782,80.113-33.182L873.03,597.703c44.174-44.175,44.174-116.052,0-160.229L577.922,142.367
		C556.523,120.968,528.072,109.182,497.808,109.182z"/>
	<g>
		<path fill="#51B5FF" d="M382.231,359.021c34.057,0,60.021,14.3,77.887,42.896c17.861,28.6,26.797,67.123,26.797,115.576
			c0,48.583-8.936,87.173-26.797,115.771c-17.864,28.599-43.829,42.894-77.887,42.894c-33.933,0-59.862-14.297-77.79-42.894
			c-17.932-28.599-26.895-67.188-26.895-115.771c0-48.454,8.963-86.978,26.895-115.576
			C322.368,373.32,348.298,359.021,382.231,359.021z M323.798,581.447L427.141,419.34c-6.544-11.941-13.631-20-21.266-24.173
			c-7.634-4.175-15.557-6.265-23.767-6.265c-21.425,0-37.718,11.919-48.879,35.753c-11.165,23.837-16.743,54.066-16.743,90.686
			c0,8.353,0.256,17.347,0.771,26.98C317.77,551.961,319.948,565,323.798,581.447z M440.077,455.03L337.473,618.128
			c5.519,9.383,11.87,16.42,19.055,21.108c7.188,4.693,15.208,7.036,24.066,7.036c24.381,0,41.709-13.654,51.975-40.967
			c10.264-27.312,15.401-57.61,15.401-90.9C447.973,493.847,445.338,474.052,440.077,455.03z"/>
		<path fill="#51B5FF" d="M610.298,637.215V406.444c-10.795,8.575-21.276,15.863-31.423,21.875
			c-10.154,6.014-24.103,12.155-41.837,18.42v-32.388c28.147-11.953,52.565-27.438,73.261-46.462h35.858v269.325h71.908v29.883
			H537.041v-29.883L610.298,637.215L610.298,637.215L610.298,637.215z"/>
	</g>
</g>
<path fill="#51B5FF" d="M1375.892,523.697h-186.147v160.125h213.234v27.086h-244.833V324.273h243.505v27.084h-211.906v145.255
	h186.148L1375.892,523.697L1375.892,523.697z"/>
<path fill="#51B5FF" d="M1737.832,590.085l0.532,1.592c-3.364,38.771-17.174,69.267-41.424,91.48
	c-24.258,22.22-56.74,33.324-97.454,33.324c-43.02,0-77.72-15.532-104.095-46.603c-26.382-31.069-39.567-71.301-39.567-120.69
	v-62.935c0-49.215,13.188-89.444,39.567-120.691c26.375-31.243,61.075-46.869,104.095-46.869c41.066,0,73.642,10.889,97.719,32.662
	c24.073,21.775,37.796,52.404,41.159,91.88l-0.531,1.593h-29.74c-4.25-32.041-15.271-56.562-33.062-73.557
	c-17.792-16.996-42.978-25.492-75.547-25.492c-33.816,0-60.943,13.093-81.394,39.272c-20.445,26.181-30.67,59.702-30.67,100.562
	v63.417c0,41.396,10.225,75.144,30.67,101.229c20.449,26.091,47.574,39.138,81.394,39.138c32.569,0,57.794-8.3,75.679-24.896
	c17.88-16.598,28.854-41.398,32.929-74.418L1737.832,590.085L1737.832,590.085z"/>
<path fill="#51B5FF" d="M2027.811,603.096h-177.119l-39.833,107.812h-32.928l146.847-386.635h30.01l145.783,386.635h-32.928
	L2027.811,603.096z M1861.313,574.682h156.143l-77.009-209.249h-1.592L1861.313,574.682z"/>
<path fill="#51B5FF" d="M2292.029,710.906V324.273h112.327c47.268,0,86.302,15.758,117.104,47.27
	c30.806,31.512,46.207,71.962,46.207,121.354v49.657c0,49.567-15.402,90.021-46.207,121.354
	c-30.804,31.334-69.836,47.002-117.104,47.002L2292.029,710.906L2292.029,710.906z M2323.629,351.357v332.465h80.728
	c38.238,0,69.706-13.352,94.402-40.062c24.696-26.715,37.043-60.501,37.043-101.359v-50.416c0-40.33-12.396-73.846-37.179-100.558
	c-24.785-26.713-56.207-40.069-94.269-40.069L2323.629,351.357L2323.629,351.357z"/>
<path fill="#51B5FF" d="M2851.007,603.096h-177.12l-39.833,107.812h-32.928l146.849-386.635h30.007l145.785,386.635h-32.926
	L2851.007,603.096z M2684.507,574.682h156.143l-77.011-209.249h-1.59L2684.507,574.682z"/>
<path fill="#51B5FF" d="M3207.9,351.357h-133.041v359.551h-31.864V351.357h-133.039v-27.084h297.943L3207.9,351.357L3207.9,351.357z
	"/>
<path fill="#51B5FF" d="M3457.512,603.096h-177.119l-39.83,107.812h-32.929l146.847-386.635h30.006l145.785,386.635h-32.93
	L3457.512,603.096z M3291.014,574.682h156.141l-77.01-209.249h-1.592L3291.014,574.682z"/>
<path fill="#51B5FF" d="M3753.327,550.252v160.653h-31.6V324.273h133.039c40.537,0,71.918,10.314,94.137,30.938
	c22.217,20.625,33.326,47.931,33.326,81.922c0,34.346-11.109,61.785-33.326,82.316c-22.219,20.539-53.598,30.808-94.137,30.808
	h-101.439V550.252z M3753.327,523.166h101.439c31.862,0,55.809-8.101,71.83-24.298c16.02-16.197,24.032-36.6,24.032-61.209
	c0-24.78-7.967-45.36-23.899-61.737c-15.932-16.373-39.922-24.564-71.963-24.564H3753.33v171.81L3753.327,523.166L3753.327,523.166z
	"/>
<path fill="#51B5FF" d="M4340.453,549.19c0,49.921-13.676,90.288-41.025,121.089c-27.352,30.806-64.043,46.204-110.068,46.204
	c-45.319,0-81.479-15.398-108.473-46.204c-26.998-30.802-40.496-71.168-40.496-121.089v-62.935
	c0-49.744,13.453-90.108,40.361-121.09c26.905-30.979,63.02-46.472,108.344-46.472c46.024,0,82.76,15.493,110.199,46.472
	c27.438,30.979,41.16,71.345,41.16,121.09L4340.453,549.19L4340.453,549.19z M4308.854,485.94c0-41.839-10.58-75.527-31.734-101.061
	c-21.155-25.533-50.498-38.3-88.026-38.3c-36.824,0-65.504,12.767-86.037,38.3c-20.539,25.532-30.805,59.221-30.805,101.061v63.566
	c0,42.195,10.312,76.061,30.939,101.597c20.621,25.532,49.346,38.298,86.17,38.298c37.707,0,67.049-12.724,88.026-38.166
	c20.979-25.442,31.47-59.354,31.47-101.729V485.94H4308.854z"/>
<path fill="#51B5FF" d="M4454.903,536.179v174.729h-31.603V324.538h130.916c41.426,0,73.199,9.072,95.332,27.219
	c22.127,18.146,33.191,44.657,33.191,79.53c0,20.539-5.936,38.902-17.795,55.104c-11.857,16.198-28.592,28.015-50.186,35.45
	c23.897,6.021,41.11,16.771,51.646,32.264c10.533,15.494,15.799,34.919,15.799,58.288v36.379c0,12.04,1.416,22.836,4.25,32.397
	c2.83,9.56,7.521,17.353,14.074,23.365v6.375h-32.396c-6.549-6.375-11.152-15.311-13.81-26.819
	c-2.653-11.505-3.979-23.456-3.979-35.85v-35.316c0-23.724-7.66-42.44-22.974-56.163c-15.313-13.718-36.688-20.58-64.129-20.58
	h-108.342v-0.002H4454.903L4454.903,536.179z M4454.903,509.093h95.332c34.873,0,60.367-7.036,76.478-21.111
	c16.104-14.075,24.166-33.062,24.166-56.96c0-25.493-8.015-45.099-24.031-58.818c-16.027-13.719-40.23-20.58-72.629-20.58h-99.312
	v157.471L4454.903,509.093L4454.903,509.093z"/>
<path fill="#51B5FF" d="M5019.985,351.357h-133.039v359.551h-31.865V351.357h-133.039v-27.084h297.942L5019.985,351.357
	L5019.985,351.357z"/>
<path fill="#51B5FF" d="M5269.602,603.096h-177.119l-39.834,107.812h-32.93l146.85-386.635h30.008l145.783,386.635h-32.926
	L5269.602,603.096z M5103.102,574.682h156.143l-77.008-209.249h-1.594L5103.102,574.682z"/>
<path fill="#51B5FF" d="M5433.44,683.822h191.194v27.086h-223.061V324.273h31.865L5433.44,683.822L5433.44,683.822z"/>
</svg>
